<svg width="20" height="13" viewBox="0 0 20 13" fill="none" xmlns="http://www.w3.org/2000/svg">
<path d="M12.8929 11.0929C12.5024 11.4834 12.5024 12.1166 12.8929 12.5071C13.2834 12.8976 13.9166 12.8976 14.3071 12.5071L12.8929 11.0929ZM19 6.4L19.7071 7.10711C19.8946 6.91957 20 6.66522 20 6.4C20 6.13478 19.8946 5.88043 19.7071 5.69289L19 6.4ZM14.3071 0.292893C13.9166 -0.0976311 13.2834 -0.0976311 12.8929 0.292893C12.5024 0.683418 12.5024 1.31658 12.8929 1.70711L14.3071 0.292893ZM7.10711 1.70711C7.49763 1.31658 7.49763 0.683418 7.10711 0.292893C6.71658 -0.0976311 6.08342 -0.0976311 5.69289 0.292893L7.10711 1.70711ZM1 6.4L0.292893 5.69289C0.105357 5.88043 0 6.13478 0 6.4C0 6.66522 0.105357 6.91957 0.292893 7.10711L1 6.4ZM5.69289 12.5071C6.08342 12.8976 6.71658 12.8976 7.10711 12.5071C7.49763 12.1166 7.49763 11.4834 7.10711 11.0929L5.69289 12.5071ZM14.3071 12.5071L19.7071 7.10711L18.2929 5.69289L12.8929 11.0929L14.3071 12.5071ZM19.7071 5.69289L14.3071 0.292893L12.8929 1.70711L18.2929 7.10711L19.7071 5.69289ZM5.69289 0.292893L0.292893 5.69289L1.70711 7.10711L7.10711 1.70711L5.69289 0.292893ZM0.292893 7.10711L5.69289 12.5071L7.10711 11.0929L1.70711 5.69289L0.292893 7.10711Z" fill="#091E42"/>
</svg>
