<svg width="23" height="22" viewBox="0 0 23 22" fill="none" xmlns="http://www.w3.org/2000/svg">
<path d="M20.2913 3.49592C19.7805 2.98492 19.1741 2.57957 18.5066 2.303C17.8392 2.02644 17.1238 1.88409 16.4013 1.88409C15.6788 1.88409 14.9634 2.02644 14.2959 2.303C13.6285 2.57957 13.022 2.98492 12.5113 3.49592L11.4513 4.55592L10.3913 3.49592C9.3596 2.46423 7.96032 1.88463 6.50129 1.88463C5.04226 1.88463 3.64298 2.46423 2.61129 3.49592C1.5796 4.52761 1 5.92689 1 7.38592C1 8.84495 1.5796 10.2442 2.61129 11.2759L3.67129 12.3359L11.4513 20.1159L19.2313 12.3359L20.2913 11.2759C20.8023 10.7652 21.2076 10.1587 21.4842 9.49127C21.7608 8.82382 21.9031 8.10841 21.9031 7.38592C21.9031 6.66343 21.7608 5.94802 21.4842 5.28056C21.2076 4.61311 20.8023 4.00668 20.2913 3.49592V3.49592Z" stroke="url(#paint0_linear_2_6115)" stroke-width="2" stroke-linecap="round" stroke-linejoin="round"/>
<defs>
<linearGradient id="paint0_linear_2_6115" x1="1" y1="1.88409" x2="22.3484" y2="2.4213" gradientUnits="userSpaceOnUse">
<stop stop-color="#8AD4EC"/>
<stop offset="0.217372" stop-color="#EF96FF"/>
<stop offset="0.540308" stop-color="#FF56A9"/>
<stop offset="0.852826" stop-color="#FFAA6C"/>
</linearGradient>
</defs>
</svg>
