<svg width="64" height="10" viewBox="0 0 64 10" fill="none" xmlns="http://www.w3.org/2000/svg">
<g clip-path="url(#clip0_2_6170)">
<path d="M3.21289 9.92579C2.27646 9.92579 1.50922 9.69203 0.911161 9.22447C0.320973 8.74861 0.0258789 8.07236 0.0258789 7.19571C0.0258789 7.01204 0.0455518 6.78662 0.0848978 6.51946C0.187197 5.91836 0.332777 5.19619 0.521637 4.35297C1.05674 2.05705 2.43778 0.909088 4.66476 0.909088C5.27068 0.909088 5.81366 1.01762 6.29368 1.23469C6.77371 1.44341 7.1514 1.76067 7.42684 2.18645C7.70224 2.60389 7.83996 3.10482 7.83996 3.68924C7.83996 3.86456 7.82031 4.08581 7.78097 4.35297C7.6629 5.09601 7.52126 5.81818 7.35602 6.51946C7.08058 7.66327 6.60451 8.519 5.92777 9.08674C5.25099 9.64609 4.34606 9.92579 3.21289 9.92579ZM3.37815 8.12245C3.81882 8.12245 4.1926 7.98467 4.49952 7.70917C4.81426 7.43366 5.03854 7.01204 5.1723 6.44435C5.35332 5.65953 5.491 4.97495 5.58547 4.39053C5.61694 4.21521 5.63268 4.03571 5.63268 3.85204C5.63268 3.0923 5.25886 2.71243 4.5113 2.71243C4.07063 2.71243 3.69291 2.85018 3.37815 3.12569C3.07125 3.4012 2.85091 3.82282 2.71714 4.39053C2.57549 4.9499 2.43385 5.63451 2.2922 6.44435C2.26072 6.61129 2.24498 6.78662 2.24498 6.97029C2.24498 7.73838 2.62271 8.12245 3.37815 8.12245Z" fill="#FF0420"/>
<path d="M9.03776 9.8005C8.95117 9.8005 8.8843 9.77128 8.83709 9.71285C8.79775 9.64604 8.78593 9.57093 8.80166 9.48744L10.4306 1.34735C10.4463 1.25551 10.4896 1.18038 10.5604 1.12193C10.6313 1.06349 10.706 1.03427 10.7847 1.03427H13.9245C14.798 1.03427 15.4983 1.22629 16.0256 1.61034C16.5607 1.99438 16.8282 2.54958 16.8282 3.27592C16.8282 3.48464 16.8046 3.70171 16.7574 3.92713C16.5607 4.88724 16.1633 5.59687 15.5652 6.05609C14.975 6.51526 14.1645 6.74483 13.1336 6.74483H11.5401L10.9972 9.48744C10.9814 9.57927 10.9381 9.65438 10.8673 9.71285C10.7965 9.77128 10.7218 9.8005 10.643 9.8005H9.03776ZM13.2163 5.01665C13.5468 5.01665 13.834 4.92064 14.0779 4.72861C14.3298 4.53659 14.495 4.26108 14.5737 3.90208C14.5973 3.76015 14.6091 3.63492 14.6091 3.52638C14.6091 3.28427 14.5422 3.1006 14.4085 2.97536C14.2747 2.84179 14.0465 2.775 13.7239 2.775H12.3074L11.8588 5.01665H13.2163Z" fill="#FF0420"/>
<path d="M19.4876 9.8005C19.401 9.8005 19.3341 9.77128 19.2869 9.71285C19.2397 9.64604 19.224 9.57093 19.2397 9.48744L20.5499 3.00041H18.4489C18.3623 3.00041 18.2954 2.97119 18.2482 2.91275C18.2088 2.84596 18.1971 2.77082 18.2128 2.68733L18.4843 1.34735C18.5 1.25551 18.5433 1.18038 18.6141 1.12193C18.6849 1.06349 18.7597 1.03427 18.8384 1.03427H25.1888C25.2754 1.03427 25.3422 1.06349 25.3895 1.12193C25.421 1.17203 25.4367 1.22212 25.4367 1.27221C25.4367 1.29726 25.4327 1.3223 25.4249 1.34735L25.1534 2.68733C25.1376 2.77917 25.0944 2.85431 25.0235 2.91275C24.9606 2.97119 24.8859 3.00041 24.7993 3.00041H22.71L21.3998 9.48744C21.384 9.57927 21.3408 9.65438 21.27 9.71285C21.1991 9.77128 21.1244 9.8005 21.0457 9.8005H19.4876Z" fill="#FF0420"/>
<path d="M25.7382 9.8005C25.6516 9.8005 25.5847 9.77128 25.5375 9.71285C25.4903 9.64604 25.4745 9.57093 25.4903 9.48744L27.131 1.34735C27.1468 1.25551 27.1901 1.18038 27.2609 1.12193C27.3317 1.06349 27.4064 1.03427 27.4851 1.03427H29.0786C29.1652 1.03427 29.2321 1.06349 29.2793 1.12193C29.3108 1.17203 29.3265 1.22212 29.3265 1.27221C29.3265 1.29726 29.3226 1.3223 29.3147 1.34735L27.6858 9.48744C27.67 9.57927 27.6268 9.65438 27.556 9.71285C27.4851 9.77128 27.4104 9.8005 27.3317 9.8005H25.7382Z" fill="#FF0420"/>
<path d="M30.2323 9.8005C30.1457 9.8005 30.0788 9.77128 30.0316 9.71285C29.9844 9.65438 29.9687 9.57927 29.9844 9.48744L31.6133 1.34735C31.6291 1.25551 31.6723 1.18038 31.7431 1.12193C31.814 1.06349 31.8927 1.03427 31.9792 1.03427H33.254C33.4429 1.03427 33.5649 1.12611 33.6199 1.30978L34.9066 5.25459L37.7749 1.30978C37.8142 1.24299 37.8693 1.18038 37.9401 1.12193C38.0188 1.06349 38.1133 1.03427 38.2234 1.03427H39.5101C39.5966 1.03427 39.6635 1.06349 39.7107 1.12193C39.7422 1.17203 39.7579 1.22212 39.7579 1.27221C39.7579 1.29726 39.754 1.3223 39.7461 1.34735L38.1172 9.48744C38.1015 9.57927 38.0582 9.65438 37.9873 9.71285C37.9165 9.77128 37.8418 9.8005 37.7631 9.8005H36.3348C36.2483 9.8005 36.1814 9.77128 36.1341 9.71285C36.0948 9.64604 36.083 9.57093 36.0988 9.48744L37.0195 4.86637L35.2135 7.40859C35.1348 7.50043 35.06 7.57139 34.9892 7.62148C34.9184 7.67156 34.8357 7.69663 34.7413 7.69663H34.1275C33.9623 7.69663 33.8482 7.6006 33.7852 7.40859L32.9472 4.75366L32.0029 9.48744C31.9871 9.57927 31.9438 9.65438 31.873 9.71285C31.8022 9.77128 31.7274 9.8005 31.6487 9.8005H30.2323Z" fill="#FF0420"/>
<path d="M40.6512 9.8005C40.5646 9.8005 40.4978 9.77128 40.4506 9.71285C40.4034 9.64604 40.3876 9.57093 40.4034 9.48744L42.0441 1.34735C42.0598 1.25551 42.1031 1.18038 42.1739 1.12193C42.2446 1.06349 42.3195 1.03427 42.3981 1.03427H43.9916C44.0783 1.03427 44.1452 1.06349 44.1923 1.12193C44.2239 1.17203 44.2395 1.22212 44.2395 1.27221C44.2395 1.29726 44.2357 1.3223 44.2277 1.34735L42.5989 9.48744C42.5833 9.57927 42.5399 9.65438 42.4688 9.71285C42.3981 9.77128 42.3232 9.8005 42.2446 9.8005H40.6512Z" fill="#FF0420"/>
<path d="M48.0618 9.92575C47.3692 9.92575 46.7751 9.82558 46.2794 9.62518C45.7913 9.42483 45.4214 9.15767 45.1698 8.82373C44.9257 8.48976 44.8037 8.11822 44.8037 7.70913C44.8037 7.64237 44.8117 7.54219 44.8273 7.40861C44.8433 7.33345 44.8748 7.27083 44.9219 7.22075C44.9771 7.17066 45.0398 7.14559 45.1109 7.14559H46.6215C46.7162 7.14559 46.7868 7.16232 46.834 7.19568C46.8891 7.22909 46.9442 7.28751 46.9993 7.37101C47.0545 7.58809 47.1803 7.76761 47.3772 7.90953C47.5817 8.05145 47.8611 8.12242 48.215 8.12242C48.6635 8.12242 49.0258 8.04726 49.301 7.897C49.5766 7.74673 49.742 7.54219 49.7967 7.28337C49.8047 7.24996 49.8085 7.19987 49.8085 7.1331C49.8085 6.92437 49.6868 6.76157 49.4428 6.64467C49.1987 6.51943 48.7502 6.37336 48.0971 6.20637C47.3339 6.03104 46.7553 5.76807 46.3619 5.41741C45.9684 5.05841 45.7719 4.59088 45.7719 4.01481C45.7719 3.81444 45.7955 3.60989 45.8426 3.40117C46 2.62474 46.3896 2.01527 47.0111 1.57279C47.6406 1.1303 48.451 0.909058 49.4428 0.909058C50.0407 0.909058 50.5722 1.02177 51.0363 1.24718C51.5004 1.4726 51.8585 1.76064 52.1105 2.11129C52.3702 2.45359 52.4998 2.79589 52.4998 3.13819C52.4998 3.23837 52.496 3.30933 52.488 3.35108C52.4724 3.42622 52.4371 3.48883 52.3819 3.53893C52.3348 3.58902 52.2755 3.61407 52.2048 3.61407H50.6231C50.4501 3.61407 50.3319 3.5431 50.2692 3.40117C50.2612 3.20915 50.1665 3.04635 49.9856 2.91277C49.8047 2.77919 49.5686 2.7124 49.2774 2.7124C48.9311 2.7124 48.6442 2.77919 48.4157 2.91277C48.1956 3.04635 48.0576 3.24255 48.0029 3.50136C47.9949 3.5431 47.9907 3.59737 47.9907 3.66416C47.9907 3.86453 48.1009 4.03151 48.3214 4.16509C48.5495 4.29032 48.9471 4.41973 49.5135 4.5533C50.395 4.73698 51.0363 4.99996 51.4377 5.34227C51.8467 5.68457 52.0512 6.1396 52.0512 6.70729C52.0512 6.8993 52.0276 7.10804 51.9805 7.33345C51.8076 8.18504 51.3864 8.83207 50.7173 9.27457C50.0567 9.70868 49.1714 9.92575 48.0618 9.92575Z" fill="#FF0420"/>
<path d="M53.6171 9.8005C53.5304 9.8005 53.4635 9.77128 53.4164 9.71285C53.3693 9.65438 53.3533 9.57927 53.3693 9.48744L54.9981 1.34735C55.0137 1.25551 55.057 1.18038 55.1281 1.12193C55.1988 1.06349 55.2775 1.03427 55.3642 1.03427H56.6387C56.8277 1.03427 56.9497 1.12611 57.0048 1.30978L58.2916 5.25459L61.1596 1.30978C61.1991 1.24299 61.2543 1.18038 61.325 1.12193C61.4036 1.06349 61.4979 1.03427 61.6081 1.03427H62.8949C62.9816 1.03427 63.0485 1.06349 63.0956 1.12193C63.1272 1.17203 63.1427 1.22212 63.1427 1.27221C63.1427 1.29726 63.1389 1.3223 63.1309 1.34735L61.5021 9.48744C61.4861 9.57927 61.4428 9.65438 61.3721 9.71285C61.3014 9.77128 61.2265 9.8005 61.1478 9.8005H59.7197C59.633 9.8005 59.5661 9.77128 59.519 9.71285C59.4794 9.64604 59.4676 9.57093 59.4836 9.48744L60.4043 4.86637L58.5983 7.40859C58.5196 7.50043 58.4447 7.57139 58.374 7.62148C58.3033 7.67156 58.2205 7.69663 58.1262 7.69663H57.5123C57.3469 7.69663 57.2329 7.6006 57.1702 7.40859L56.332 4.75366L55.3878 9.48744C55.3718 9.57927 55.3284 9.65438 55.2577 9.71285C55.1871 9.77128 55.1122 9.8005 55.0335 9.8005H53.6171Z" fill="#FF0420"/>
</g>
<defs>
<clipPath id="clip0_2_6170">
<rect width="63.1169" height="9.0167" fill="white" transform="translate(0.0258789 0.909088)"/>
</clipPath>
</defs>
</svg>
