<svg width="32" height="36" viewBox="0 0 32 36" fill="none" xmlns="http://www.w3.org/2000/svg">
<path d="M7.66667 16V9.33333C7.66667 7.1232 8.54464 5.00358 10.1074 3.44078C11.6702 1.87797 13.7899 1 16 1C18.2101 1 20.3298 1.87797 21.8926 3.44078C23.4554 5.00358 24.3333 7.1232 24.3333 9.33333V16M4.33333 16H27.6667C29.5076 16 31 17.4924 31 19.3333V31C31 32.841 29.5076 34.3333 27.6667 34.3333H4.33333C2.49238 34.3333 1 32.841 1 31V19.3333C1 17.4924 2.49238 16 4.33333 16Z" stroke="url(#paint0_linear_2_6768)" stroke-width="2" stroke-linecap="round" stroke-linejoin="round"/>
<defs>
<linearGradient id="paint0_linear_2_6768" x1="1" y1="1" x2="31.6465" y2="1.60536" gradientUnits="userSpaceOnUse">
<stop stop-color="#8AD4EC"/>
<stop offset="0.217372" stop-color="#EF96FF"/>
<stop offset="0.540308" stop-color="#FF56A9"/>
<stop offset="0.852826" stop-color="#FFAA6C"/>
</linearGradient>
</defs>
</svg>
