<svg width="93" height="24" viewBox="0 0 93 24" fill="none" xmlns="http://www.w3.org/2000/svg">
<path d="M12 2L2 7L12 12L22 7L12 2Z" stroke="#091E42" stroke-width="2" stroke-linecap="round" stroke-linejoin="round"/>
<path d="M2 17L12 22L22 17" stroke="#091E42" stroke-width="2" stroke-linecap="round" stroke-linejoin="round"/>
<path d="M2 12L12 17L22 12" stroke="#091E42" stroke-width="2" stroke-linecap="round" stroke-linejoin="round"/>
<path d="M37.1616 17.7397C36.2454 17.7362 35.457 17.5107 34.7965 17.0632C34.1396 16.6158 33.6335 15.9677 33.2784 15.119C32.9268 14.2702 32.7528 13.2493 32.7564 12.0561C32.7564 10.8665 32.9322 9.85263 33.2837 9.01456C33.6388 8.17649 34.1449 7.53906 34.8018 7.10227C35.4624 6.66193 36.2489 6.44176 37.1616 6.44176C38.0742 6.44176 38.859 6.66193 39.516 7.10227C40.1765 7.54261 40.6843 8.18182 41.0394 9.01989C41.3945 9.8544 41.5703 10.8665 41.5668 12.0561C41.5668 13.2528 41.3892 14.2756 41.0341 15.1243C40.6825 15.973 40.1783 16.6211 39.5213 17.0685C38.8643 17.516 38.0778 17.7397 37.1616 17.7397ZM37.1616 15.8274C37.7866 15.8274 38.2855 15.5131 38.6584 14.8846C39.0313 14.256 39.2159 13.3132 39.2124 12.0561C39.2124 11.2287 39.1271 10.5398 38.9567 9.98935C38.7898 9.43892 38.5518 9.02521 38.2429 8.74822C37.9375 8.47124 37.5771 8.33274 37.1616 8.33274C36.5401 8.33274 36.043 8.64347 35.6701 9.26491C35.2972 9.88636 35.109 10.8168 35.1055 12.0561C35.1055 12.8942 35.1889 13.5938 35.3558 14.1548C35.5263 14.7124 35.766 15.1314 36.0749 15.4119C36.3839 15.6889 36.7461 15.8274 37.1616 15.8274ZM45.129 9.31818L46.6311 12.1786L48.1705 9.31818H50.4983L48.1279 13.4091L50.5622 17.5H48.2451L46.6311 14.6715L45.0438 17.5H42.7L45.129 13.4091L42.7852 9.31818H45.129ZM51.8886 17.5V6.59091H56.1926C57.02 6.59091 57.7249 6.74893 58.3073 7.06499C58.8896 7.37749 59.3335 7.8125 59.6389 8.37003C59.9479 8.92401 60.1024 9.56321 60.1024 10.2876C60.1024 11.0121 59.9461 11.6513 59.6336 12.2053C59.3211 12.7592 58.8683 13.1907 58.2753 13.4996C57.6858 13.8086 56.972 13.9631 56.134 13.9631H53.3907V12.1147H55.7611C56.205 12.1147 56.5708 12.0384 56.8584 11.8857C57.1496 11.7294 57.3662 11.5146 57.5083 11.2411C57.6539 10.9641 57.7267 10.6463 57.7267 10.2876C57.7267 9.92543 57.6539 9.60937 57.5083 9.33949C57.3662 9.06605 57.1496 8.85476 56.8584 8.70561C56.5672 8.55291 56.1979 8.47656 55.7504 8.47656H54.195V17.5H51.8886ZM61.5579 17.5V9.31818H63.7578V10.7457H63.843C63.9922 10.2379 64.2425 9.8544 64.5941 9.59517C64.9457 9.33239 65.3505 9.20099 65.8086 9.20099C65.9222 9.20099 66.0447 9.2081 66.1761 9.2223C66.3075 9.23651 66.4229 9.25604 66.5224 9.28089V11.2944C66.4158 11.2624 66.2685 11.234 66.0803 11.2092C65.892 11.1843 65.7198 11.1719 65.5636 11.1719C65.2298 11.1719 64.9315 11.2447 64.6687 11.3903C64.4094 11.5323 64.2035 11.7312 64.0508 11.9869C63.9016 12.2425 63.8271 12.5373 63.8271 12.8711V17.5H61.5579ZM71.0115 17.6598C70.184 17.6598 69.4685 17.484 68.8648 17.1325C68.2646 16.7773 67.8012 16.2837 67.4745 15.6516C67.1478 15.016 66.9845 14.2791 66.9845 13.4411C66.9845 12.5959 67.1478 11.8572 67.4745 11.2251C67.8012 10.5895 68.2646 10.0959 68.8648 9.74432C69.4685 9.3892 70.184 9.21165 71.0115 9.21165C71.8389 9.21165 72.5526 9.3892 73.1528 9.74432C73.7565 10.0959 74.2217 10.5895 74.5484 11.2251C74.8751 11.8572 75.0384 12.5959 75.0384 13.4411C75.0384 14.2791 74.8751 15.016 74.5484 15.6516C74.2217 16.2837 73.7565 16.7773 73.1528 17.1325C72.5526 17.484 71.8389 17.6598 71.0115 17.6598ZM71.0221 15.902C71.3985 15.902 71.7128 15.7955 71.9649 15.5824C72.2171 15.3658 72.407 15.071 72.5349 14.6982C72.6663 14.3253 72.732 13.9009 72.732 13.4251C72.732 12.9492 72.6663 12.5249 72.5349 12.152C72.407 11.7791 72.2171 11.4844 71.9649 11.2678C71.7128 11.0511 71.3985 10.9428 71.0221 10.9428C70.6421 10.9428 70.3225 11.0511 70.0633 11.2678C69.8076 11.4844 69.6141 11.7791 69.4827 12.152C69.3548 12.5249 69.2909 12.9492 69.2909 13.4251C69.2909 13.9009 69.3548 14.3253 69.4827 14.6982C69.6141 15.071 69.8076 15.3658 70.0633 15.5824C70.3225 15.7955 70.6421 15.902 71.0221 15.902ZM78.1173 9.31818L79.6194 12.1786L81.1588 9.31818H83.4866L81.1162 13.4091L83.5505 17.5H81.2334L79.6194 14.6715L78.032 17.5H75.6883L78.1173 13.4091L75.7735 9.31818H78.1173ZM86.2352 20.5682C85.9475 20.5682 85.6776 20.5451 85.4255 20.4989C85.1769 20.4563 84.971 20.4013 84.8076 20.3338L85.319 18.6399C85.5853 18.7216 85.825 18.766 86.0381 18.7731C86.2547 18.7802 86.4411 18.7305 86.5974 18.6239C86.7572 18.5174 86.8868 18.3363 86.9862 18.0806L87.1194 17.7344L84.1844 9.31818H86.5708L88.2646 15.3267H88.3499L90.0597 9.31818H92.4621L89.282 18.3842C89.1294 18.8246 88.9216 19.2081 88.6588 19.5348C88.3996 19.8651 88.0711 20.119 87.6734 20.2965C87.2757 20.4776 86.7963 20.5682 86.2352 20.5682Z" fill="#091E42"/>
</svg>
